<?xml version='1.0' encoding='utf-8'?>
<svg xmlns="http://www.w3.org/2000/svg" width="921px" height="922px" version="1.1" viewBox="72 575 921 922"> <g> <g fill="#00aec7"> <path d="m71.999 574.4c-0.15906 0-0.31159 0.06316-0.42406 0.17565-0.11248 0.11249-0.17565 0.26502-0.17565 0.42405l9.96e-4 922c0 0.3312 0.2685 0.5997 0.59972 0.5997l921 1e-3c0.15903 0 0.31156-0.0632 0.42405-0.1757 0.11249-0.1124 0.17565-0.265 0.17565-0.424l-9.7e-4 -922c0-0.33124-0.26849-0.59973-0.59973-0.59973l-921-9.7e-4z"/> </g> <g fill="#ffbe93"> <path d="m603.33 998.71 0.7313-3.4842 9.0263 12.856c0.43628 3.4942 0.58314 8.4656 0.47244 14.915-0.06546 3.8286-0.18545 7.9307-0.3899 12.306l-1.2069 14.953c-0.09756 1.9616 0.26205 4.8764 0.55844 7.8156l-9.4062 11.458c-3.942-3.5457-6.1129-6.7825-6.4032-9.7212-0.1549-1.5672 0.10143-3.1892 0.47607-4.9006 0.18433-0.8421 1.093-3.6768 2.8666-8.4864 0.24109-0.6538 0.39306-1.3908 0.48086-2.197 0.04734-0.4353 0.062-0.8965 0.03245-1.3799-0.12915-2.1045-0.2157-3.7527-0.23215-4.9465-0.01956-1.4263 0.0256-3.3323 0.1178-5.719 0.1567-4.061 0.65854-11.831 1.527-23.309z"/> <path d="m613.32 966.94v0.00244l0.36136 0.36866-0.049 1.7832-0.0492 1.7952 0.30325 0.16284c0.75195 0.4009 1.8206 2.6511 1.9955 4.1802 0.09767 0.8564 0.26487 1.6438 0.42591 1.924 0.03016 0.05295 0.19836 0.02075 0.3551-0.08055 0.43481-0.282 0.99512-0.2327 1.1958 0.08934 0.22926 0.36816 0.91676 3.1377 0.83396 3.3462-0.0813 0.20457 0.10977 1.5906 0.27737 2.044 0.09153 0.24705 0.07913 0.9172-0.04577 2.4304-0.0945 1.1462-0.1876 2.2085-0.215 2.3545-0.02536 0.1338-0.0813 0.634-0.1372 1.1098-0.0544 0.46338-0.26646 1.3386-0.4664 1.948-0.1953 0.59475-0.44545 1.4236-0.5504 1.8247-0.8617 3.2993-1.481 4.7199-2.7249 6.3152-0.8199 1.0515-0.983 1.489-1.2685 3.4272-0.14536 0.98755-0.33066 2.1709-0.41406 2.6211-0.2069 1.1214-0.157 3.9068 0.2401 10.178 0.0547 0.8684 0.12526 2.4326 0.1603 3.4473l-0.51405 3.6511-5.2028-1.8604-5.7647-0.0791 0.0856-0.89065c0.0553-0.47556 0.18457-1.5361 0.2883-2.341 0.2377-1.8408 0.52884-7.4685 0.5652-10.974 0.0419-3.9944-0.22875-5.6338-0.9912-6.0972-0.1825-0.1113-0.5344-0.4077-0.77344-0.6455-0.53271-0.5298-2.6121-3.075-3.244-3.9656-0.24305-0.34277-0.59058-0.73827-0.79395-0.89037-0.32886-0.24586-0.67676-0.74074-2.2166-3.1824-0.30152-0.47826-0.97915-1.3843-1.5118-2.0117-0.5372-0.6333-1.0877-1.3855-1.2232-1.6658-0.13796-0.2856-0.4591-0.74656-0.6947-1.0232-1.1112-1.3056-1.598-1.8913-1.7548-2.1006-0.2871-0.38354-0.20764-0.89477 0.18823-1.2802 0.29712-0.28934 0.46937-0.34793 0.92117-0.3418 0.78183 0.0107 1.3961 0.35373 2.8618 1.5539 1.2045 0.9861 1.633 1.4124 3.5303 3.5789 0.80921 0.92406 1.7742 1.5754 2.3728 1.5837 0.21948 0.00296 0.79823-0.35666 2.2671-1.4228 1.405-1.0203 2.6311-5.2298 3.5356-12.057 0.07605-0.574 0.194-1.2544 0.2654-1.5237 0.0704-0.2666 0.2815-1.2038 0.4681-2.0703 0.32204-1.4963 0.9176-3.3938 1.2893-4.0867 0.3307-0.6164 1.177-0.95725 1.7808-0.69626 0.7081 0.30616 0.74877 0.79272 0.2334 3.4846-0.2473 1.2917-0.3815 2.5605-0.474 4.3298-0.0725 1.3799-0.19776 2.8315-0.27687 3.2339-0.07837 0.40134-0.15403 1.4392-0.16543 2.2937-0.0177 1.2946 0.0127 1.5822 0.16055 1.6394 0.27785 0.10716 0.6521-0.2842 0.73155-0.7847 0.0408-0.2556 0.11415-0.9504 0.15566-1.5488 0.12574-1.8054 0.36364-4.064 0.57507-5.4278 0.10962-0.70875 0.2384-2.0249 0.28417-2.9282 0.08815-1.7331 0.29286-3.4524 0.4961-4.1098 0.308-0.99707 1.6183-1.346 2.3171-0.61597v0.00244zm2.7003 16.064 3.4e-4 0.0022c-0.0022 0.11987 0.0452 0.21804 0.1189 0.21899 0.0608 9.8e-4 0.12405-0.1809 0.12685-0.40065 0.00415-0.2932-0.0321-0.34275-0.11855-0.2097-0.06296 0.0967-0.12595 0.2788-0.12754 0.38916l3.4e-4 0.0022z"/> </g> <g fill="#fff"> <path d="m545.41 1308.6 8.0495 3.396q-1.0117-1.4661-2.0228-2.9319 1.0259-1.4397 2.0518-2.8787l-8.0785 2.4146z"/> <path d="m548.26 1311.9-0.03175 0.5179-0.0315 0.518q1.6201-2.0119 3.2412-4.0242-1.3771-2.0908-2.7537-4.1813l-0.42432 7.1696z"/> </g> <g fill="#070400"> <path d="m556.88 1320.2-14.949 1.1367q-0.906 4.0638-1.8704 6.3465-0.34276 0.8186-0.7755 1.5459-0.19543 0.3855-1.6193 2.3962-0.29874 0.4656-0.43344 0.8416-0.3055 0.8488 0.0678 1.7529 1.2547 2.6135 4.7332 2.6189 1.0929 0.0227 3.0083-0.1907 4.2412-0.4729 5.7156-0.7602 2.9825-0.5323 4.2229-1.4058 0.74387-0.5237 1.109-1.3706 0.2268-0.3772 0.60386-2.5137 0.08948-0.3369 0.2273-0.5923 0.14344-0.2651 0.35464-0.5151 1.103-1.1387 1.1744-1.3142 0.33424-0.4941 0.40626-1.0517 0.12109-0.8802-0.33206-2.462-0.368-1.3496-1.6407-4.4555z"/> <path d="m582.22 1318.2-17.789 2.2333q-1.5917 4.8509-1.0602 6.8496 0.2278 0.8877 1.0312 1.4742 0.41931 0.299 0.94175 0.5141 0.10683 0.0767 2.1074 0.7262 0.4026 0.1504 0.73497 0.3596 0.3761 0.2303 0.74293 0.6272 1.2536 1.7207 1.4458 1.772 0.60705 0.5085 1.7145 0.8196 2.8102 0.771 10.042 1.2517 5.3645 0.3103 6.4236-0.3037 1.0622-0.4807 0.4111-2.0552-0.2496-0.6516-0.8453-1.718-3.7324-6.1602-3.9734-6.9155-1.0949-2.2554-1.9236-5.6197z"/> </g> <g fill="#ffbe93"> <path d="m510.77 999.04-1.1368-3.3738-7.4481 13.83c-0.021 3.5213 0.41833 8.4754 1.2883 14.866 0.51634 3.7942 1.1188 7.8535 1.8375 12.174l2.9604 14.706c0.32812 1.9366 0.51831 4.3814 0.57007 7.335l10.488 10.762c3.4964-3.9854 5.2706-7.4554 5.2126-10.408-0.0309-1.5745-0.47645-3.155-1.0501-4.8101-0.2821-0.8149-1.5191-3.5224-3.8468-8.0896-0.3164-0.6208-0.55407-1.3349-0.7362-2.125-0.09839-0.4265-0.16748-0.8828-0.19494-1.3664-0.11976-2.105-0.22816-3.752-0.3527-4.9395-0.1485-1.4184-0.4177-3.3059-0.7905-5.6652-0.6343-4.0142-2.0482-11.671-4.2631-22.967z"/> </g> <g fill="#171b15"> <path d="m531.95 1140.7q-1.5349 7.7597-2.4682 10.561-0.50096 1.9685-2.7279 6.3257l-0.61416 1.8618q-0.6698 2.502-0.5205 6.7776 0.1127 3.4449 1.0324 10.04l4.1579 27.002q-0.0228 10.693 0.3843 15.088 4.0375 46.282 3.7253 44.875 0.33775 4.0569 0.61594 20.185 0.14466 3.6418 0.48926 8.5056 1.8699 24.222 3.2409 31.315l19.168-1.5154 2.544-112.37 1.9912 112.1q7.7944 1.6588 21.669 1.2289 4.1725-35.302 4.1726-40.074 0.15589-2.8777 0.17469-6.0296-0.20055-14.244-0.05408-17.072l1.5835-33.307 0.0806-4.5781-0.1178-9.5571q0.1355-1.7144 0.43395-3.343 2.7202-12.919 3.1317-16.927 0.78563-5.9763 0.5343-11.574-1.0902-17.022-6.3529-27.478-0.43357-1.5337 0.23416-8.0442-20.909 4.4531-29.867 3.5416-10.084-0.4746-26.527-7.4956z"/> </g> <g fill-opacity=".13725"> <path d="m604.79 1116.2v7e-4l0.00207 8e-4 -0.00207-0.0015z"/> <path d="m598.67 1127.4q-0.0824 0.1023-0.2675 0.3069 0.09475 0.0337 0.15945 0.0332 0.04075-5e-4 0.05885 0.0752l0.0515-0.4153z"/> <path d="m603.85 1115.2 0.00232 5e-4q0-5e-4 0-5e-4z"/> <path d="m535.01 1174.5q1.3166 1.0854 2.6593 1.0764 3.8686-0.0254-2.6577-1.0764z"/> <path d="m534.48 1174q0.00561 0.2007 0.01096 0.4014 0.2692 0.0422 0.523 0.0828-0.26675-0.2193-0.532-0.4842z"/> <path d="m524.22 1053.9q1.9446 4.934 3.3994 8.3215-1.8469-4.8191-3.3981-8.3215z"/> </g> <g fill="#7d2b42"> <path d="m523.11 1052.4v0.0024 0.0027 0.0024l-0.03623 0.0013c-0.09803 0.0476-0.29337 0.2636-0.37707 0.706-0.5763 3.0398-0.9352 4.9517-1.3203 5.6814-0.76797 1.4556-1.7834 2.3618-3.0418 2.615-2.6261 0.5281-6.0754-1.0491-10.324-4.6094 0.92518 7.6338 2.2999 13.641 3.9716 18.081 1.2845 3.4114 14.543 22.237 14.543 22.237 0.47717 51.933 1.0437 55.193 1.0437 55.193l26.976 9.7966 7.7613-1.5293 0.1227-77.085c-0.2377-0.7468-16.821-5.8624-16.62-6.2208l-1.1033-0.365c-1.21-1.1597-2.0323-1.9146-2.5293-1.9683-4.17-0.4509-6.6027-0.9075-7.2699-1.6702-1.7294-1.1059-3.1631-2.7944-4.4096-5.0056-1.1865-2.105-3.3343-6.9948-6.4221-14.697-0.2794-0.697-0.62926-1.0744-0.964-1.1677v0.0024-0.0024 0.0024z"/> </g> <g fill="#fff"> <path d="m508.01 1056.8-0.00122 7e-4 0.00219 0.0023-2.5e-4 -5e-4v-5e-4l-1e-4 -3e-4 -1.3e-4 -5e-4v-2e-4l-1.3e-4 -5e-4v-2e-4l-3.6e-4 -3e-4"/> </g> <g fill="#7d2b42"> <path d="m597.64 1053.2v0.0024l0.03624 0.0069c0.09741 0.0483 0.29086 0.2661 0.37096 0.7092 0.55054 3.0447 0.8932 4.9592 1.2722 5.6924 0.7554 1.4614 1.7633 2.3772 3.0196 2.6408 2.6214 0.5501 6.084-0.9978 10.363-4.5219-0.9898 7.6257-2.4152 13.621-4.1244 18.046-1.3135 3.4004-15.217 21.205-15.294 22.223-2.0323 27.182 0.3518 47.618-0.94785 55.072l-27.058 9.568-7.7483-1.5947 0.34888-85.541c0.2439-0.7446 2.4612-0.4705 6.6514 0.8228 1.5416-0.3177 2.568-0.5533 3.0203-0.4109 5.0158 1.5764 7.3787 2.3269 7.1812 1.9665l1.1062-0.3554c1.22-1.1492 2.0483-1.8973 2.5459-1.9468 4.1733-0.4159 6.6098-0.8517 7.2837-1.6088 1.7384-1.0913 3.1867-2.7673 4.4519-4.968 1.2044-2.095 3.3933-6.9666 6.5463-14.642 0.2854-0.6949 0.6383-1.0691 0.9739-1.1597v0.0024z"/> </g> <g fill="#fff"> <path d="m612.7 1057.7 0.0016 7e-4 -0.0023 0.0022v-5e-4 -5e-4 -2e-4l3.6e-4 -5e-4v-3e-4 -4e-4h3.4e-4v-3e-4 -2e-4"/> </g> <g fill="#7d2b42"> <path d="m597.05 1089.9-0.28308-0.9812q-2.1867-8.8577-10.318-12.461-10.601-5.1215-26.812-5.7781-3.3773-0.0659-6.3768 0.0578l-2.9053 0.1714q-2.8108 0.2193-5.244 0.6282-4.8667 0.8184-8.2231 2.3975-6.677 2.5971-12.158 12.874l72.321 3.0914"/> </g> <g> <path d="m545.62 1048.3-0.2356-0.4292q-2.6379-4.0264-0.65893-11.178 1.1952-3.6616 2.2345-5.0244 1.9092-2.7207 3.8561-3.7766 4.9057-3.0007 11.782-1.8843 5.7419 1.0666 8.7528 5.5072 2.4011 3.3831 2.2892 13.851l-28.02 2.9349z"/> <path d="m546.86 1055.3-1.3718-3.318q-0.75525-5.0623 0.54895-9.3184l24.89-1.4437q1.3634 0.2375 2.008 1.8041 0.74684 2.1045 1.0775 8.1946-0.65884 2.8921-1.0476 3.7371-0.37842 0.9526-1.2539 1.655l-24.851-1.3107z"/> </g> <g fill="#ffbb96"> <path d="m561.48 1083.6-4.1511-7.9659-4.0221 0.2719-1.1505-0.4856c-1.657-0.5429-2.9728-1.8654-3.9475-3.9682l1.4025-1.4641 0.21228-5.4358-2.4275-6.5572c-1.1888-0.3142-1.8852-1.6118-2.2173-3.8759-0.43126-2.9397-0.55212-4.7486-0.23572-5.4463 0.47351-0.1775 1.1574 0.9187 2.0506 3.2878l0.2766-4.1894c-1.7724-6.4036-0.3435-7.7886-0.3435-7.7886 2.8616-2.7749 9.2878-3.7331 11.276-3.7336 2.487-1e-3 9.6552 0.1732 12.444 2.6705 1.3396 1.2 1.5251 13.688 1.5251 13.688 0.3754-2.1915 0.94593-3.6482 1.6638-4.4161 0.72244-0.7727 1.0019-0.2001 0.86197 1.7598-0.23194 3.2527-0.52207 5.0462-0.68167 5.4583-0.265 0.686-0.7656 1.2573-1.6723 1.6562l-2.5148 7.4392 0.24377 7.2041c-1.6085 2.7412-3.3726 4.7121-5.2921 5.9132l-3.2997 5.9772z"/> </g> <g> <path d="m545.7 1051.8v7e-4 -5e-4 -2e-4z"/> <path d="m560.61 1037.5v5e-4 -5e-4 5e-4z"/> </g> <g fill="#f00" fill-opacity=".10196"> <path d="m549.97 1064.9 0.6487 0.6492q2.9208 3.0789 5.7955 4.9185 2.3335 1.2868 4.1201 1.0981 2.3545-0.1221 4.6369-1.7979 0.9797-0.7392 2.0389-1.8291 0.7723-0.7184 2.7728-3.2711l-9.1262 14.265-10.887-14.032z"/> </g> <g fill="#ffbe93"> <path d="m497.11 968.67v0.0024l-0.31542 0.4087 0.25879 1.7652 0.26026 1.7768-0.28186 0.19776c-0.69947 0.48684-1.4953 2.8472-1.4887 4.3862 0.00365 0.8623-0.0696 1.6638-0.19594 1.9607-0.02404 0.0559-0.19482 0.04393-0.36218-0.0381-0.46545-0.2285-1.0159-0.11377-1.177 0.2295-0.18445 0.3928-0.54088 3.2236-0.43408 3.4211 0.1051 0.1936 0.07886 1.5925-0.0343 2.0625-0.0619 0.25586 0.0293 0.92016 0.33166 2.4082 0.22901 1.127 0.44666 2.1709 0.49109 2.3125 0.04089 0.13013 0.15552 0.62012 0.26709 1.0862 0.10876 0.45363 0.42249 1.2979 0.69276 1.8795 0.26378 0.5676 0.6101 1.3611 0.76146 1.7473 1.2447 3.1746 2.0271 4.5122 3.4502 5.9499 0.9381 0.94751 1.1515 1.3626 1.6633 3.2539 0.26111 0.96365 0.58458 2.1164 0.72034 2.5537 0.33801 1.0893 0.61651 3.8612 0.96148 10.136 0.04773 0.86889 0.16186 2.4307 0.24696 3.4421l0.94067 3.565 4.9474-2.4604 5.7152-0.7576-0.18969-0.87424c-0.11121-0.46582-0.36451-1.5039-0.56263-2.291-0.45288-1.8-1.4051-7.354-1.8546-10.831-0.51196-3.9617-0.43653-5.6213 0.26597-6.1719 0.16823-0.13159 0.4827-0.46753 0.6919-0.73196 0.46645-0.5886 2.2317-3.3611 2.754-4.3201 0.20116-0.3689 0.49952-0.8025 0.6836-0.97754 0.29746-0.2832 0.58471-0.81516 1.8258-3.4217 0.24326-0.5107 0.80921-1.49 1.2643-2.176 0.459-0.6919 0.91665-1.5039 1.0181-1.7981 0.1035-0.2998 0.36803-0.79565 0.5693-1.0981 0.94937-1.4273 1.3639-2.0664 1.495-2.2927 0.23965-0.4148 0.101-0.91284-0.33787-1.249-0.32923-0.2522-0.50693-0.29027-0.95493-0.23094-0.77505 0.10278-1.3446 0.51584-2.6587 1.8803-1.08 1.1214-1.4552 1.595-3.0838 3.9702-0.69444 1.0132-1.5758 1.7737-2.1694 1.8523-0.21764 0.02881-0.8346-0.26024-2.4189-1.1457-1.5161-0.8477-3.2292-4.8836-4.9324-11.557-0.14307-0.56105-0.34034-1.2226-0.443-1.482-0.10144-0.25634-0.4215-1.1623-0.709-2.0007-0.4962-1.448-1.311-3.2617-1.7618-3.9063-0.401-0.5732-1.2817-0.8121-1.8503-0.48154-0.667 0.38721-0.65028 0.87524 0.1787 3.4875 0.39808 1.2539 0.6808 2.4978 0.98127 4.2443 0.23449 1.3618 0.53003 2.7886 0.65576 3.1789 0.12549 0.38943 0.32275 1.4109 0.43481 2.2581 0.16992 1.2837 0.17383 1.573 0.03356 1.647-0.26293 0.1394-0.68077-0.20556-0.8187-0.69263-0.07057-0.24953-0.22548-0.93066-0.33717-1.52-0.33759-1.7782-0.83991-3.9928-1.2106-5.3226-0.19275-0.6907-0.4756-1.9824-0.62757-2.8743-0.2915-1.7107-0.69726-3.3938-0.97668-4.0227-0.42335-0.95385-1.7656-1.1457-2.3736-0.3386v0.0024zm-0.78832 16.27v0.0022c0.01587 0.1189-0.01953 0.2219-0.09253 0.23143-0.0603 0.00831-0.14441-0.16479-0.17335-0.38303-0.03844-0.29055-0.0084-0.344 0.0934-0.2222 0.07385 0.0889 0.15783 0.2622 0.17248 0.3716v0.0022z"/> </g> <g fill-opacity=".13725"> <path d="m596.45 1054.8q-1.3496 5.1287-2.395 8.6641 1.2658-5.0032 2.3936-8.6641z"/> </g> <g fill="#fff"> <path d="m612.88 1055.8 0.0016 7e-4 -0.00184 0.0024v-7e-4 -5e-4l2.4e-4 -7e-4v-3e-4 -2e-4 -3e-4 -2e-4 -2e-4"/> </g> <g fill-opacity=".33333"> <path d="m847.13 1336-2.9952 0.5007q-21.285 1.4458-124.52 1.8098-103.95 0.3595-244.82-0.6006-134.44-0.9946-215.04-2.6433-25.825-0.5318-42.543-1.0824l-14.05-0.5486q-11.578-0.5501-11.706-1.0792 3.5247-1.6013 96.04-2.1632 92.514-0.5624 231.82 0.1708 139.31 0.8155 231.8 2.4056 92.495 1.59 96.002 3.2304"/> </g> <g> <path d="m192.21 1261.7-0.03834 0.3249q-0.26441 0.9805-1.5243 1.563-1.2688 0.5818-2.9829 0.4604-1.6355-0.1645-2.6127-0.9248-0.31299-0.2451-0.51502-0.5336l-0.16918-0.2972q-0.13941-0.3056-0.13917-0.6369 0.04859-1.0176 1.1784-1.688 1.1299-0.6695 2.8258-0.686 1.6957 0.0354 2.818 0.7172 1.1223 0.6831 1.1594 1.701"/> </g> <g fill="#00454f"> <path d="m695.52 901.47c-0.0051-3.4e-4 -0.0094-0.00124-0.01184-0.00124l-5e-3 0.00185c0-0.00185 0.0028-6.1e-4 0.00864-6.1e-4zm155.38-0.60339c0.0021-0.02161 0.0027-0.05969-0.00134-0.1084l-0.00806 0.00135c-0.0027 0.0521-0.0023 0.0874-6e-4 0.10705zm-158.58-12.44v0.0022c0.0099-0.0083 0.02407-0.019 0.0409-0.0343l-0.0067 0.0016c-0.02136 0.0133-0.0348 0.0244-0.0421 0.0305zm160.8 175.2c-3.4663-0.019-6.7912-0.2595-8.996-0.7703l6.1e-4 0.0025c-11.867-2.747-20.825-10.864-23.596-21.611-1.9599-7.4341-0.70142-18.254 3.2502-28.824l0.0012-0.00316c0.4369-1.1557 0.7337-1.9807 0.92606-2.5613-15.823 6.1968-25.448 8.3769-36.953 8.313-0.1247-9.5e-4 -0.3055-0.00315-0.4327-0.00415l7e-4 0.0029c-13.748-0.1374-23.996-4.604-31.983-14.086l-8.3e-4 -7e-4c-3.313-3.9386-8.4833-14.084-9.9067-19.556l-0.9972-3.6819c-0.0997-0.3672 0.0167-0.76 0.30103-1.0134l3.5329-3.155v0.00196c5.543-5.1052 9.9062-12.556 11.83-20.128v0.00196c0.37955-1.6016 0.73917-5.5242 0.8128-8.6194v0.0022l0.03183-5.7663c0.00197-0.33924 0.17371-0.65369 0.45801-0.83899l1.9919-1.2931-6e-4 0.00254c3.2534-2.1875 10.623-9.4717 13.131-12.942 16.78-23.374 11.347-52.991-10.589-68.739-3.1325-2.2487-6.6034-4.2172-10.399-5.8447-4.5177-1.9258-11.783-4.0338-15.865-4.5524l-0.02099-0.0032c-2.7104-0.4022-3.8592-0.63364-4.2866-2.7433v0.00281c-1.9665-8.9108-4.4385-14.866-9.0217-21.572-5.2394-7.5877-14.522-15.403-23.237-19.403l-3.5e-4 0.0022-0.0076-0.00514c-1.1351-0.5265-2.1321-0.95665-2.7728-1.2164-1.0604 2.5184-4.1489 10.508-4.8688 12.587l-0.0083 0.0028c0.4164 0.30874 1.2484 0.8274 2.3159 1.3498l0.0177 0.00855c18.605 9.5771 28.357 29.425 22.698 47.136v0.0022c-3.3517 10.621-12.881 19.22-25.501 23.252l-0.01293 0.00454c-0.9546 0.29026-1.7408 0.59936-2.2024 0.81016l-0.0082 0.0022c0.4628 2.4418 2.4857 11.011 3.1625 13.254l0.0083 0.00195c2.4216-0.37036 10.999-3.5397 15.104-5.7854l-2.4e-4 0.00293c10.791-6.0442 19.757-17.507 23.214-29.877l0.00317-0.0117 1.0404-3.5658c0.12745-0.4365 0.5282-0.72753 0.9713-0.725 0.0497 4e-4 0.0995 0.00455 0.1499 0.0125l2.266 0.35325 0.0032 0.00185c4.9304 0.7799 9.492 2.3127 14.649 4.8119l-2.4e-4 0.00217c4.3534 2.0591 6.3083 3.4978 9.654 6.8229l0.00636 0.00671c7.0711 7.1501 10.038 14.872 9.3991 24.469v0.00378c-0.95334 13.625-10.818 27.276-25.255 35.314l-2.2726 1.2759 0.58425 3.1512-2.5e-4 0.0022c1.0703 5.5178 0.9119 14.392-0.2877 19.082-1.3877 5.4815-4.9581 10.583-9.207 13.1l-0.00536 0.00317c-4.2095 2.4597-6.5468 3.0523-11.87 3.0227-8.1586-0.04544-16.117-3.2065-24.423-9.5229-3.1225-2.3573-4.01-2.8297-4.3618-2.8317l-0.0078 0.0015c-4.698 3.2241-9.9498 6.1372-13.471 7.4067v0.0022c-3.4486 1.2495-4.9176 1.5171-10.001 1.4888-0.5691-0.0032-1.2036-0.0105-1.8744-0.02l0.0088 0.0022c-6.5598-0.0391-8.0138-0.2166-11.527-1.6099l1e-4 0.00245c-8.6323-3.3604-16.187-9.5506-21.524-17.683v0.0019c-16.423-24.965-12.716-58.548 8.9849-83.887l0.0027-0.0029c1.5397-1.7833 2.3429-2.9912 2.553-3.5022l-0.00766 0.0016c-0.47903-0.65017-1.7603-2.3049-3.1831-3.9834l-0.00307-0.00378c-6.6659-7.9513-12.737-18.58-15.96-27.848l-1.2e-4 -3.4e-4c-11.671-33.672 1.9338-68.084 30.969-78.147v0.0022c0.59814-0.2098 1.2043-0.4078 1.8157-0.59325l0.00315-9.5e-4c3.1571-0.95034 8.2708-1.3904 13.192-1.3631 4.4544 0.02456 8.9103 0.43276 11.763 1.2697l0.00855 0.0028c10.059 3.0498 20.197 8.9688 28.202 16.484l3.9037 3.6402 2.7175-0.92041 0.00855-0.00294c9.0531-3.0953 13.581-4.0007 22.034-4.2406l-0.00266 0.00159c2.1418-0.07507 3.8074-0.11534 5.2022-0.10779 3.3078 0.01845 5.0778 0.31091 8.0014 1.0588l0.00233 1e-3c12.418 3.2072 20.668 10.208 26.225 22.122l-2.5e-4 0.0016c3.9536 8.4269 4.787 13.302 4.7112 26.937-0.03073 5.5476 0.04087 8.8142 0.18531 10.233l0.00906 0.00194c4.2873-1.2939 11.713-1.9689 18.392-1.9318 4.5613 0.02575 8.9121 0.38255 11.795 1.1548 14.573 3.9037 25.763 13.765 31.646 27.744l0.0015 0.0035c4.8543 11.661 5.5515 27.827 1.7981 42.269l-4.7e-4 1e-3c-0.412 1.5735-0.7266 2.8913-0.87685 3.6316l-0.00989 0.0019c0.77564 0.3103 2.1533 0.854 3.6881 1.425l0.01113 0.00405c20.213 7.8009 35.466 21.785 45.276 41.623 19.029 38.478 10.544 93.67-17.805 112.27v0.0025c-4.8705 3.206-8.3733 4.8137-14.813 6.73v0.0027c-3.129 0.9495-8.9666 1.4251-14.208 1.3958z"/> <path d="m692.16 1335.6c-4.0188-0.0227-8.0629-0.4307-11.118-1.242l-0.00245-0.0012c-15.237-4.0877-28.361-16.142-36.584-33.34l-8.6e-4 -0.0014c-13.232-27.766-9.6814-61.577 9.3553-90.131l0.0131-0.0186v0.0015c1.4923-2.2139 2.6932-4.1126 3.167-4.9248l-0.00796 0.0019c-0.48254-0.6811-1.6017-2.1306-2.9477-3.79l-4e-4 7e-4c-9.0495-11.169-14.954-23.425-17.693-36.819v-0.0012c-1.6837-8.2538-1.6143-20.755 0.161-28.989 3.5394-16.416 11.953-30.888 25.421-43.752v0.0019l3.8268-3.6916-5.0412-5.1472-0.00195-0.0022c-11.677-11.981-19.292-25.448-23.276-41.24-2.2471-8.7371-2.7335-14.171-2.3345-24.34l1.4e-4 -1e-3c0.53162-13.13 2.9448-22.109 8.9733-33.66l0.0016-0.0029c1.6488-3.1314 2.5935-4.8736 3.7771-5.3084h2.4e-4c0.18016-0.06687 0.36072-0.1047 0.54626-0.1174l-6e-4 0.0027c0.04943-0.00515 0.10375-0.0071 0.1527-0.00685 0.1687 9.5e-4 0.3281 0.02195 0.4733 0.05249l-0.0043 0.00219c0.7594 0.12891 3.5663 0.96753 6.1764 1.7605v0.00197c5.2608 1.583 10.863 2.3916 16.384 2.4221 6.7312 0.0376 13.323-1.0803 19.023-3.3296l0.00576-0.0029 3.4663-1.3411c0.11925-0.04637 0.24425-0.0688 0.36913-0.06785 0.16307 4.9e-4 0.32593 0.04175 0.47302 0.12109l4.2397 2.2912 0.00976 0.00535c5.2741 2.9246 10.876 4.8982 16.583 5.762v0.0022c1.7055 0.2544 4.0137 0.38795 6.3024 0.40065 3.3567 0.01879 6.3684-0.22705 7.3654-0.60815l0.00735-0.0032c0.0139-0.00486 0.0417-0.0149 0.0577-0.021l0.00295-9.5e-4c0.1654-0.0564 0.35655-0.09742 0.56875-0.09595 0.4382 0.0022 0.8077 0.1826 1.0956 0.4463v0.00194c0.66335 0.60522 1.1384 1.947 1.72 3.8301v0.00246c8.3314 25.803 29.303 41.598 55.373 41.743 0.0626 8e-4 0.0758 8e-4 0.1384 1e-3l-0.0033 0.0022c3.8423-0.0371 5.784-0.1899 14.506-1.3298l-9.7e-4 0.0019 2.9347-0.4363c0.051-0.0083 0.10203-0.0114 0.15306-0.0112 0.23889 0.0012 0.47119 0.0881 0.65417 0.2459 0.22157 0.1923 0.34827 0.4721 0.34667 0.7661l-0.01573 2.8349c-0.02967 5.3816 1.9762 13.683 4.6601 19.13v0.0024l1.3461 2.6697c0.14757 0.2937 0.14307 0.6404-0.01223 0.929-0.155 0.289-0.44114 0.4846-0.76743 0.5234l-2.7232 0.325 1.5e-4 0.0022c-11.572 1.5-24.835 7.3045-32.237 14.074l-0.00535 0.0051-2.5645 2.3106c-0.19395 0.1745-0.437 0.2605-0.67893 0.2592-0.26077-0.0014-0.52063-0.1037-0.71597-0.3049l-3.4958-3.5915v0.0024c-8.5537-8.6492-19.705-13.352-31.209-13.416-2.6808-0.0148-5.3788 0.2225-8.0724 0.7203l-2.5e-4 0.0019c-4.6738 0.8611-10.523 2.9478-13.932 4.9556l-0.00877 0.0054c-1.2204 0.7028-2.4937 1.3293-2.9655 1.4736l-0.0011 1e-3c-0.0339 0.0095-0.1954 0.0629-0.38425 0.0617-0.48435-0.0027-0.81725-0.3681-0.8114-0.3681l8.5e-4 0.0022c-0.4679-0.4671-1.5775-2.136-2.6392-3.9449l-0.00514-0.0088c-4.7943-8.3728-12.776-16.045-20.623-20.078l-1.5e-4 0.0019-2.8716-1.4575-0.10084 0.2424 5e-4 0.0015c-0.30286 0.771-1.5604 3.9209-2.8696 7.1138l-1.5e-4 0.0022-0.0072 0.0151c-0.95911 2.2996-1.7495 4.3184-2.1082 5.2786l-0.00784 0.0017c0.51221 0.3405 1.4427 0.9057 2.6056 1.5688l0.01245 0.0071c1.852 1.0893 5.3621 3.9492 7.7699 6.4399v0.0022c3.5734 3.6114 4.9331 5.5828 6.9988 9.9488v0.0019c3.1446 6.6089 4.3985 12.152 4.3602 19.001-0.06067 10.938-3.796 19.563-11.845 27.523l-4.3657 4.3174 3.6889 5.4487 4e-4 3e-3c1.7776 2.5861 3.3608 4.778 4.0775 5.6958l0.0077 0.0017c1.7932-1.1026 7.2838-5.8961 9.6874-8.8554l0.0017-0.0012c8.472-10.374 12.542-21.751 12.618-35.473l0.0385-6.9179c0.0017-0.3218 0.15757-0.6236 0.4187-0.8115l1.8791-1.3499-4.6e-4 0.0012c3.0904-2.3437 8.8904-4.966 12.809-5.8786l4e-3 -0.0015c2.3522-0.5383 4.6752-0.8013 6.9569-0.7886 7.9089 0.0449 15.216 3.398 21.496 9.8391l0.00232 0.0015c2.3699 2.4441 3.9202 4.274 4.1478 5.4086v5e-4c0.04127 0.2072 0.05907 0.4687-0.01723 0.7434l-0.0167 0.0534c-0.17774 0.524-1.0992 3.1258-2.0788 5.7875-2.8744 8.0298-3.4663 17.145-1.6007 24.004l-0.0012 0.0014c0.5157 1.5752-0.42374 2.4861-1.6911 3.2613l-0.0188 0.0117c-3.0235 1.7588-9.0179 7.6697-11.584 11.528l-0.0033 0.0063c-8.3671 12.399-9.8306 30.348-3.5636 45.933l0.0031 0.0065 1.3414 3.4102c0.11463 0.2905 0.0878 0.6186-0.07323 0.886-0.1604 0.2681-0.43667 0.4458-0.74707 0.4824l-2.3263 0.27v0.0022c-8.3855 0.9698-11.485 1.5127-15.59 2.8184l-0.0083 0.0022c-19.122 5.9043-31.351 19.764-34.855 39.446v9e-4c-0.52806 2.9515-0.9265 6.1016-0.9315 7.024-0.01367 2.4448-0.9359 2.8232-4.1328 3.9812v0.0014c-9.3875 3.4727-19.342 12.967-23.889 22.813-1.2776 2.7871-2.3826 6.1033-2.6597 7.4544l-0.0078 0.0022c2.2623 0.6499 9.8298 2.614 12.438 3.1613h0.00304c0.34546 0.0738 0.54246 0.1075 0.66896 0.1172l0.0078 0.0017c0.105-0.1958 0.2599-0.6706 0.5958-1.8842l-3.4e-4 0.0022c1.7622-6.6919 7.7236-13.905 14.207-17.277l0.00194-0.0015c4.6912-2.4257 9.839-3.5842 15.08-3.555 9.6632 0.0535 19.631 4.1431 27.698 11.768l-6e-4 0.0019 2.1169 1.9636 3.9298-3.2624 0.0033-0.0029 4e-4 0.0019 3.6e-4 -0.0022v0.0022c2.5636-2.1428 5.1399-4.4734 5.8354-5.2141l0.0111-0.0108 0.60634-0.6259-3.3849-3.2356v0.0024c-4.7201-4.4939-8.9278-7.4643-15.114-10.516l-0.0052-0.0027c-4.7304-2.3707-13.631-4.9054-16.934-4.9237-0.73447-0.0039-1.6362-0.0249-2.2936-0.4763v0.0012c-0.23779-0.1648-0.43481-0.3755-0.58335-0.6323v0.0015c-0.2549-0.4439-0.32473-0.9527-0.32205-1.448v0.0019c0.00672-1.1926 0.45925-3.0598 1.1938-5.8593 2.9014-11.333 9.2935-19.678 18.422-23.973l0.00205-0.0015c6.5752-3.0757 9.705-3.7327 18.136-3.6858 0.3533 0.0017 0.7727 0.0059 1.1472 0.01l-0.00403 0.0022 0.0089-0.0022c6.6333 0.0955 9.0417 0.3972 13.674 1.6402l9.8e-4 0.0014c20.902 5.621 38.671 19.553 46.605 36.521l0.00256 0.0058c2.9201 6.3317 3.8899 10.905 3.8513 17.855-0.04165 7.4836-1.128 11.766-4.7427 19.124l-0.00586 0.0109c-2.229 4.397-3.6645 6.3467-7.218 9.8608l-0.0028 0.0029c-7.0678 6.9324-14.574 10.287-24.297 10.758l2.4e-4 0.0029-0.01331-0.0017c-1.0499 0.0489-1.9903 0.0752-2.9021 0.0701-3.9588-0.022-6.9724-0.6528-13.295-2.582l-0.0293-0.0103c-0.09266-0.0315-0.1422-0.0354-0.162-0.0356h-0.0011c-0.02734 0-0.27197 0.0508-0.8663 1.0566l-0.0044 0.0056c-5.5021 9.152-20.989 26.283-29.695 32.726l-1.5e-4 0.0017c-6.0686 4.5696-14.945 8.9524-21.057 10.489l-0.0022 5e-4c-3.1167 0.7751-7.1935 1.1395-11.212 1.1173z"/> <path d="m783.37 1127.6c0.00305-0.0012 0.00549-0.0022 0.00795-0.0027l5e-4 0.0015c-7.6e-4 -0.0039-0.00186-0.0051-0.00296-0.0056v0.0014c-0.00464 3e-4 -0.0094 0.0027-0.01454 0.0054zm37.103 109.54c-0.59804-0.0032-0.96694-0.6072-0.96654-0.6407l0.01634 0.0013c-0.36404-0.6797-1.6473-3.4022-3.097-6.5396l-6e-4 -0.0017c-4.2128-9.1683-8.7608-15.843-15.27-22.482l-7.6e-4 0.0022c-8.1198-8.2686-20.192-15.911-31.827-20.067l-0.02027-0.0073c-3.2745-1.2129-4.648-2.1704-7.2773-5.0658l-3.6e-4 2e-3c-6.1128-6.6004-9.3196-16.135-8.6262-25.408v-0.0017c0.6272-8.2496 3.2925-14.749 8.4803-20.404l0.0017-0.0024c4.86-5.2746 12.743-8.8188 19.731-8.7799 0.224 0.0012 0.4332-0.0039 0.6229-0.0122l-0.0088 0.0017c-0.2812-0.3719-0.6312-0.8108-1.0288-1.2766l-0.0012-0.0013c-2.5254-2.9699-5.7294-9.1286-6.9323-13.28v2e-3c-1.9763-6.7676-0.62974-15.227 3.2416-21.169 4.3257-6.7278 12.956-12.977 22.197-16.268v0.0017c6.9479-2.513 12.978-3.7476 19.493-3.7112 5.4959 0.0305 11.296 0.9645 18.241 2.7547l0.00194 8e-4c6.9472 1.8066 12.968 2.7058 18.474 2.7363 2.5515 0.0142 4.9909-0.1577 7.3644-0.5137l0.00695-9e-4c7.1549-1.0213 11.207-2.2708 18.579-5.6536v7e-4l5.3945-2.5202c0.1387-0.064 0.2857-0.0953 0.43106-0.0945 0.28528 0.0017 0.56434 0.1247 0.75914 0.3518l1.4647 1.709 0.00891 0.0107c2.5262 3.0303 6.1112 10.034 7.643 14.598l0.00355 0.0105c6.0378 18.689 0.57095 39.169-14.541 54.63v0.0017c-10.19 10.419-22.414 16.32-35.567 17.116l-0.0073 3e-4c-1.4287 0.0762-2.689 0.1787-3.5896 0.2715l-0.0097 0.0024c0.34695 0.4641 0.7797 1.0359 1.2564 1.656v2e-3c5.6797 7.2512 9.5482 15.982 11.507 25.711 1.4072 6.8894 1.1815 17.938-0.42947 23.718l-0.00123 0.0026c-4.3331 15.341-15.599 25.18-32.131 27.988l-2.3e-4 0.0015c-1.8438 0.3225-3.3897 0.5998-3.402 0.602l-0.18336 0.0157z"/> <path d="m338.04 1286.6c0.00415 0-0.00452-0.0029-0.03052-0.0051l-7.3e-4 0.0017c-0.00134-0.0017-0.00635-0.0027-0.01697-0.0029 0.02002 0.0046 0.03455 0.0063 0.04236 0.0063zm95.724-22.978c0.00866-0.0029 0.0161-0.0061 0.02343-0.0083v0.0022c0.15197-0.0566 0.19824-0.0852 0.18042-0.0852-0.01855-2e-4 -0.10327 0.0286-0.21095 0.0913zm-83.69-15.547v0.0027zm52.551 84.397c-9.9448-0.0552-20.693-3.5464-30.547-10-9.2237-6.0321-20.3-17.073-28.959-28.694l-0.00415-0.0061-0.00427-0.0054-0.00122-0.0017c-2.4676-3.3777-4.6426-6.2749-5.338-7.1601-0.59595 0.0512-1.8232 0.3061-3.2059 0.7316v3e-3c-3.3092 1.0205-7.8756 1.54-12.094 1.5166-2.7157-0.0152-5.3416-0.2554-7.437-0.7561l-0.00598-0.0017c-7.0496-1.7312-12.184-4.7536-17.713-10.345-5.4122-5.4731-8.1954-10.051-10.471-17.481l-0.0017-0.0044c-1.0982-3.6567-1.3163-5.7548-1.2837-11.643 0.05747-10.319 2.1518-16.514 8.6556-25.868l2.6e-4 0.0024c3.3361-4.803 11.236-12.494 16.666-16.318l0.00244-0.0022c12.034-8.4265 27.281-13.428 40.267-13.356 0.88927 0.0051 1.7622 0.0337 2.6299 0.0869l4.9e-4 0.0015c16.55 1.0188 27.814 9.5619 32.797 24.853l0.00158 0.0051c0.88782 2.7696 1.7968 6.2842 1.9797 7.8252l-2.4e-4 0.0025 0.38207 2.6086c0.03992 0.2734-0.03417 0.551-0.20507 0.7686-0.1709 0.2175-0.42333 0.3545-0.69861 0.3796l-4.0846 0.3738-0.00757 0.0012c-4.2772 0.3596-12.048 2.655-16.726 5.0162l-0.00501 0.0032c-5.5917 2.7849-15.12 9.9458-16.855 12.646l-0.0127 0.0191v9e-4c-0.17054 0.2515-0.23377 0.3709-0.2577 0.4285l-0.00598 0.0017c0.07728 0.1956 0.45972 0.6341 1.9618 2.0183l0.0198 0.0183c1.4458 1.406 3.9681 3.6741 5.6452 5.0867l0.00805 0.0078 2.3793 2.0491 2.8178-2.5127c8.0154-7.1924 17.91-10.947 27.336-10.894 6.1246 0.034 12.056 1.6763 17.128 5.0364l0.0067 0.0054 0.0022 1e-3 0.01196 0.0083c1.807 1.2563 4.0883 3.0219 5.0159 4.0229l0.00281 0.0029c2.3629 2.5684 5.5776 8.2752 6.6771 11.815 0.43848 1.4048 0.67481 1.9019 0.80262 2.0686l0.00647 0.0022c0.02307-0.0054 0.05212-0.0105 0.08801-0.0191l0.02319-0.0058c3.5658-0.7295 10.642-2.3784 13.018-2.9915l-0.00685 0.0025c-0.50035-1.8594-2.1277-6.3733-3.2069-8.563-4.7809-9.5796-12.116-16.825-21.629-21.258v0.0019l-4.8071-2.2402c-0.32642-0.1526-0.54652-0.4671-0.57776-0.8257l-0.31982-3.687c-0.52747-5.5759-2.777-14.316-4.8508-18.8v0.0012c-2.7479-5.8535-5.7131-9.9659-10.419-14.501-8.3913-8.0368-18.698-12.611-32.057-14.195l-0.00463-9e-4c-2.5737-0.3167-4.9574-0.6509-5.5261-0.8245l-8.7e-4 0.0024c-0.02135-0.0068-0.29564-0.0832-0.50182-0.2905l-0.00244 0.0015c-0.42054-0.4151-0.31921-1.0176-0.31554-1.0176l2.3e-4 0.0015c0.0691-0.6221 0.54493-1.8387 1.0348-2.9356l0.00135-0.0029c3.0785-6.8372 4.7659-17.934 3.9769-26.232l-2.5e-4 -0.0017c-1.1532-12.453-6.9763-23.273-16.043-30.055v0.0017l-3.7793-2.7986c-0.31494-0.2324-0.46594-0.6269-0.38708-1.0107l0.46631-2.2661-3.7e-4 0.0024c0.21423-1.1721 0.4641-5.3712 0.4867-9.4413 0.04223-7.5952-0.9872-12.483-3.5363-17.597l-2.4e-4 0.0022-1.1091-2.0816c-0.20849-0.3904-0.1372-0.8708 0.17591-1.1843l4.7323-4.7368 0.00427-0.0047c6.6549-6.5815 13.382-9.6328 21.631-9.5871 6.0193 0.0332 13.289 2.5368 19.019 6.5189l0.00818 0.0064 2.6544 1.8859c0.29542 0.2102 0.4552 0.5623 0.41832 0.9219l-0.4188 4.1331c-1.0578 10.958 2.6418 24.354 9.4978 34.484 3.1287 4.5522 10.336 11.606 12.474 12.822l0.00622 0.0021c0.29138-0.4184 0.76135-1.0988 1.3672-1.976 0.78027-1.1297 1.7222-2.4937 2.774-4.0047l3.8522-5.5359-1.1006-0.8435-0.0039-0.0031c-10.893-8.4395-16.64-22.317-14.817-35.713l0.00182-0.0108c0.8401-5.7126 2.8367-11.838 5.4299-16.318l0.00122-0.0024c2.7181-4.6665 9.1152-11.113 13.714-13.732l-6.2e-4 0.0019c1.3552-0.8208 2.3955-1.5249 2.9132-1.927l-0.00647 0.0015c-0.47607-1.1751-1.5134-3.7896-2.6652-6.6931l-1.2e-4 0.0017-2.3518-5.8543-1.0956 0.48v0.0024c-8.7646 3.8787-17.835 12.284-22.949 21.264l-1.2e-4 0.0019c-0.8291 1.491-1.718 2.8919-2.0935 3.3194l0.00268 0.0014c0.01172-0.0012-0.33995 0.4187-0.85351 0.416-0.20204-0.0012-0.37854-0.0674-0.38709-0.0703l-6.1e-4 -7e-4c-0.5072-0.1714-2.5679-1.1946-4.8118-2.333l-0.00281-0.0012c-7.1496-3.6515-11.75-4.7775-20.217-4.8241-5.3063-0.0298-8.2594 0.2382-10.794 0.9248l-0.0011 0.0022c-7.6676 2.0637-16.542 7.25-21.651 12.74l-2.3386 2.5386c-0.19885 0.2158-0.47204 0.3259-0.74633 0.3242-0.22217-1e-3 -0.44567-0.0752-0.63062-0.2263l-4.4025-3.5977-0.00256-0.0019c-7.4202-6.1052-17.272-10.575-27.657-12.532l-3.5e-4 2e-3 -0.00452-0.0027c-2.514-0.4766-4.8793-1.0215-5.4254-1.2341l-4.9e-4 0.0012-2.5e-4 0.0029c-0.0155-0.0093-0.24353-0.092-0.42102-0.2705-0.54736-0.554-0.24548-1.2847-0.21606-1.3618 0.1211-0.3162 0.33386-0.6348 0.57324-0.9104l-3.7e-4 0.0019c1.8484-2.2693 4.8228-12.154 5.4226-18.794l4.9e-4 -0.0051 0.42163-4.4206c0.02637-0.2786 0.1681-0.5337 0.39038-0.7037 0.17859-0.1364 0.39575-0.2089 0.61694-0.2077 0.0553 5e-4 0.11011 0.0058 0.16565 0.0149l2.0387 0.352v0.0017c5.3524 0.9207 10.484 1.397 15.258 1.4235 4.5426 0.0254 8.7483-0.3569 12.485-1.1477l0.00426-7e-4c20.179-4.1761 35.019-17.492 42.625-38.301l6.2e-4 -0.00122c1.0761-2.9297 1.7898-4.7102 2.7434-5.3384 0.3064-0.20267 0.64746-0.3057 1.0056-0.3035 0.07972 5e-4 0.15539 0.00586 0.229 0.0154l4.9e-4 7e-4 0.01208 1e-3 0.01209 0.00146c2.639 0.3667 5.2083 0.5567 7.7013 0.57084 8.5632 0.0474 16.302-1.9822 23.321-6.1062l4.9e-4 0.0017c1.948-1.1552 3.1051-1.8271 4.2599-1.8208 0.62487 0.00344 1.1815 0.19973 1.7334 0.4197l0.01343 0.00513c6.5786 2.7359 14.232 4.2847 21.285 4.3245 1.8198 0.01 3.5895-0.07984 5.2944-0.2744l0.00867-1e-3c5.5593-0.58667 12.498-2.1766 15.79-3.527l0.00842-0.00364 1.8187-0.7268c0.12341-0.04932 0.25183-0.073 0.37853-0.07202 0.35572 0.00196 0.69654 0.1936 0.8772 0.52316l2.2424 4.0886c3.2527 5.8396 6.1885 13.715 7.9232 21.23l0.00122 0.0071c1.2957 5.779 1.4572 7.6797 1.4049 17.073-0.04773 8.6424-0.2915 11.617-1.3608 16.42-4.1145 18.656-12.975 34.435-26.631 47.483l-0.00219 0.0029-3.5026 3.3252 3.2284 3.0352v0.0019c7.7586 7.2664 15.151 17.332 19.467 26.547 13.24 28.014 8.3264 59.762-12.965 84.812l-2.3145 2.7545 2.6214 3.9796c4.3286 6.5144 9.9171 18.37 12.284 26.013l0.00256 0.0079c1.0696 3.5617 2.5196 9.7352 3.1855 13.751l0.00159 0.0104c0.99731 6.4319 1.1554 8.825 0.81676 18.503-0.2782 9.1597-0.63842 12.181-1.8219 17.201l-0.00182 0.0079c-3.8665 15.835-10.308 27.61-20.167 36.844l-0.0011 8e-4c-7.2381 6.757-13.884 10.394-22.549 12.148v0.0029c-2.6641 0.5506-5.4302 0.8133-8.2612 0.7974z"/> <path d="m272.31 1232.5-0.24365-0.0315c-0.16968-0.043-1.0314-0.2116-1.9701-0.3276l-0.0249-0.0037c-4.0835-0.6067-9.05-2.2007-13.594-4.4179-3.9672-1.8936-5.8684-3.3428-9.3155-6.886v0.0024c-6.6601-6.7972-9.8226-13.951-10.921-24.359v0.0017c-1.4829-13.943 3.566-30.739 12.354-41.556l0.00781-0.0098c0.74097-0.8891 1.3898-1.709 1.8699-2.3347l-0.00489 0.0015c-0.89172-0.0906-2.125-0.1924-3.5153-0.284l-0.00134 0.0027c-6.8218-0.4458-11.588-1.6965-18.2-4.8471v0.0024c-12.762-6.0674-21.781-15.014-28.047-27.838l-0.00171-0.0041c-4.4371-9.1731-5.5254-13.751-5.5261-23.999v0.0015c-0.01818-6.9599 0.22132-9.0527 1.3586-12.922v0.0015c1.4188-4.9199 4.506-11.352 7.3722-15.398l0.00342-0.0052c0.98157-1.3696 1.9344-2.6989 2.155-3.0271l2.4e-4 8e-4c0.34461-0.5108 0.92383-0.5298 1.0808-0.5337l-0.00268 0.0022c0.02331-0.0025 0.03186-0.0032 0.05505-0.0027 0.94618 0.0051 2.8767 0.7383 4.9895 1.7407v0.0025c10.246 4.7133 18.144 6.6425 27.615 6.6953 6.3552 0.0352 10.017-0.4369 22.03-2.9731l0.00501-9e-4c5.8143-1.1968 10.819-1.8174 15.468-1.7918 7.9066 0.0442 14.694 1.9583 22.586 5.9409v0.0022c9.4048 4.7082 15.976 10.721 19.465 17.855l2.5e-4 0.0014 0.0028 4e-3c1.8271 3.7656 1.9483 4.447 1.9147 10.488-0.03138 5.6301-0.21582 6.8567-1.7814 10.474-0.95324 2.2303-3.1106 5.9661-4.8018 8.3291l-0.01624 0.0225-0.00244 0.0029v2e-3c-0.90004 1.2148-1.6747 2.2966-2.2064 3.0654l-0.00574 0.0025c0.23267 0.0065 0.49036 0.0129 0.76842 0.0146 12.396 0.0689 23.683 10.117 26.816 23.599 0.97912 4.1316 0.9336 12.174-0.08996 16.348l-9.8e-4 0.0034c-1.1986 4.7979-4.484 11.052-7.7344 14.675l-0.00159 0.0012c-2.4645 2.7351-3.8003 3.6008-7.8914 5.2112l-0.01074 0.0044c-7.7173 2.9363-18.492 8.6747-23.582 12.489l-0.00561 0.0044c-6.009 4.4401-13.395 12.027-17.27 17.798l-0.00708 0.011c-1.6747 2.4263-4.5137 7.5205-6.3969 11.347l-0.00281 0.0059c-1.671 3.3459-3.302 6.3164-3.8722 6.9672l0.00109 0.0025c0.00697-0.0025-0.33618 0.4292-0.87158 0.426z"/> <path d="m270.48 1004.4c0.02856-0.03247 0.05395-0.06543 0.07617-0.09863v0.00195l-0.08155 0.09668zm132.63-192.17c0.00122-6e-4 0.00232-0.0016 0.00341-0.00316h8.6e-4c0.04822-0.03884 0.06775-0.0592 0.06775-0.06299l-0.00232 0.0022c-0.00843 0.00159-0.0376 0.02455-0.07605 0.06395zm-4.8617-12.374c0.01319 0 0.00965-0.00293-0.01709-0.00293-0.00451 3.6e-4 -0.00904 3.6e-4 -0.01428 3.6e-4l-0.00623 0.00257c0.01282-1e-3 0.02369 0 0.03101 0zm-156.89 259.47c-2.5323-0.0141-5.0423-0.1906-7.0308-0.5373v0.0015c-13.74-2.3987-27.297-11.961-35.803-25.079l-0.00366-0.0056c-5.5365-8.6675-9.1533-18.515-11.148-30.374l-1.3e-4 -0.00266c-1.3906-8.4013-1.4108-24.664-0.09875-34.377l6.1e-4 -0.00514c4.8846-34.815 22.855-59.317 52.383-71.213l0.01306-0.00475 0.01123-0.00452v0.00157c2.6267-1.0262 5.2367-2.0122 6.4275-2.3421l-0.00476 0.00158c-0.30871-0.98694-0.9176-3.5051-1.4977-5.9831l-6.1e-4 -0.00355c-1.0247-4.4356-1.1782-7.0874-1.1835-16.392v-0.00574c0.05518-9.9372 0.23291-11.696 1.4867-16.137 1.7034-6.0353 4.4443-12.023 7.5472-16.477v0.0018c2.3646-3.5008 8.1481-9.2742 11.603-11.647v2e-3c3.4703-2.3847 9.947-5.2271 14.804-6.5285l0.00365-9.5e-4c3.4163-0.90075 8.4072-1.3138 13.44-1.2858 4.9613 0.0276 10.057 0.48326 13.865 1.3716l0.01185 0.00219c1.5453 0.3805 2.932 0.69019 3.8674 0.89134l0.00548 0.00295c-0.06311-1.0725-0.19055-2.779-0.38098-4.7251l-0.0011-0.01111c-1.0264-11.848 1.1065-24.271 5.8414-33.897l0.00146-0.0029c5.1809-10.449 14.999-18.136 26.312-20.635l0.01257-0.00245c2.4907-0.5167 4.5381-0.75036 7.8386-0.7319 1.4077 0.0079 3.058 0.0616 5.056 0.15793l-0.00355 0.00217c8.5551 0.3327 14.156 1.5186 21.838 4.4906l2.4883 0.93762 3.3064-2.923-1.2e-4 0.00157c9.8934-8.8174 19.304-14.131 29.822-16.843l-6e-4 0.00156c2.9103-0.7567 6.2494-1.0208 11.546-0.9917l-0.00673 0.0016c0.26552-0.0016 0.55006-0.0012 0.80678 4e-4 7.979 0.04417 11.892 0.94016 18.544 4.1716 13.985 6.6824 23.726 19.127 28.292 36.056 1.0991 3.899 1.2521 6.1854 1.1998 15.703-7.8e-4 10.349-0.1209 11.59-1.6604 17.208v0.0016c-2.0487 7.5554-5.3596 15.394-9.1875 21.75l-0.00182 0.0032c-3.2733 5.3878-9.9569 14.405-12.284 16.588l-0.02576 0.02356-0.75256 0.6582 2.938 3.6318c9.6123 11.85 15.411 24.116 17.696 37.474l0.00109 0.0061c1.2273 7.4461 0.76038 20.176-1.0754 26.954v0.0022c-4.2838 16.006-13.289 28.244-25.65 34.571-5.2969 2.7224-10.868 4.0599-16.478 4.0289-7.6886-0.0432-15.399-2.6553-22.534-7.7158l-2.8338-1.9744-0.95348 0.7329v0.0015c-4.5477 3.582-11.616 7.8462-15.598 9.4048v0.0022c-4.1982 1.685-5.2484 1.8-11.552 1.8227l-0.00928 0.00197c-6.3332-0.03747-7.2611-0.15467-10.47-1.7511v0.0022c-5.584-2.7439-9.5096-8.2678-11.112-15.252l-1.2e-4 0.00193c-0.9254-3.9238-0.86596-12.514 0.08753-17.429v0.00232c0.29309-1.6636 0.43823-3.1354 0.43664-3.6784l-0.00561 0.0012c-0.41614-0.40476-1.707-1.3515-3.367-2.3131l-0.01842-0.0105c-2.0226-1.2285-5.5802-3.7826-7.8334-5.8274l-1e-4 2e-3c-10.26-8.9353-15.705-19.597-15.641-31.003 0.05102-9.183 2.6395-15.147 9.4863-21.975 3.6168-3.6345 5.4226-4.8846 9.9613-7.0063 5.6196-2.6562 10.748-4.2738 14.727-4.5486l-4.8e-4 0.0016 2.0926-0.15956c0.02746-0.00194 0.05493-0.00294 0.08203-0.00254 0.42712 0.00217 0.81055 0.27524 0.94848 0.6864l1.6731 4.9991 8.6e-4 0.0016c4.6616 14.022 12.715 23.547 25.13 29.841 3.4502 1.7496 8.7421 3.7272 11.691 4.3446l0.01415 0.00356 0.82971 0.18564 0.76831-3.4342v0.00234c0.43286-2.0143 1.0652-4.7314 1.4977-6.5908v0.0016c0.07545-0.3253 0.19335-0.832 0.24745-1.0648l0.5387-2.3423-1.3902-0.3816-4.9e-4 0.0022c-1.3911-0.3745-4.2867-1.5563-6.4778-2.5258l-0.02222-0.01015c-18.974-8.9563-26.134-28.605-17.339-47.235 0.1123-0.23791 0.22461-0.47056 0.34241-0.70876l0.0017-0.00376c4.1741-8.3475 10.434-14.582 19.526-19.441l0.01233-0.0061c1.5892-0.82124 2.9073-1.5577 3.6-1.9752l-0.00647 0.00234c-0.84753-2.3609-3.9141-10.347-4.8292-12.609-0.5144 0.13356-1.3843 0.42856-2.4632 0.8938l-2.5e-4 0.00156c-15.643 6.8217-28.823 22.263-32.352 37.954l-2.4e-4 0.0016-0.9883 4.3607c-0.094 0.4136-0.4369 0.7239-0.8578 0.7764l-3.0641 0.37963-0.00487 0.00137c-13.444 1.597-27.931 9.1146-35.972 18.556-3.7334 4.4074-8.3602 13.096-9.8248 18.441l-0.00158 0.00535c-1.2887 4.6065-1.7982 15.565-0.94445 20.415l6.1e-4 0.0022c2.2614 13.017 9.5896 24.915 20.689 33.394l-4.8e-4 0.00158 3.1056 2.3397c0.2539 0.1914 0.40223 0.49121 0.4004 0.80884l-0.02832 5.1036c-0.03626 6.5298 1.1439 11.774 4.1075 18.067 2.0218 4.2129 3.2507 6.0031 7.1273 9.9792l0.00342 0.0037 4.7917 4.9599c0.26307 0.27126 0.35108 0.66773 0.22852 1.0259l-1.8444 5.3763c-3.1595 9.5286-7.1925 15.899-13.439 21.499l-1.2e-4 2.6e-4c-7.3685 6.5976-17.002 9.8423-28.468 9.7786-8.815-0.0492-18.72-2.0509-29.552-5.9854l-0.0183-0.00735-2.5e-4 0.0022c-3.0322-1.1155-6.1582-2.3206-7.341-2.8916 0.1958 0.62796 0.46764 1.4156 0.8092 2.2703l0.01122 0.02955c3.6167 9.9458 4.7441 21.286 2.6476 28.913v0.0022c-3.0571 11.368-12.26 19.749-24.135 22.196l2.4e-4 0.0022c-2.4783 0.5115-5.8292 0.7559-9.0541 0.7376z"/> </g> <g fill="#ffbe93"> <path d="m569.27 968.52 1.0751-1.0627-0.0426-5.2024-0.042-5.2376 0.8931-0.45847c2.2154-1.1282 5.4582-7.6301 6.0531-12.081 0.33433-2.4921 0.8816-4.7698 1.3492-5.5863 0.1077-0.1421 0.57034-0.0327 1.032 0.255 1.2422 0.86194 2.8818 0.7284 3.4928-0.1942 0.68274-1.0656 2.8652-9.1055 2.6194-9.7128-0.21046-0.60667 0.41747-4.6294 0.9237-5.945 0.28894-0.71096 0.2998-2.6708 0.0038-7.0902-0.1952-3.3502-0.4274-6.4516-0.49636-6.8796-0.06894-0.39206-0.20349-1.8536-0.33814-3.244-0.135-1.3548-0.6908-3.9232-1.251-5.7079-0.52475-1.7486-1.2238-4.1756-1.5023-5.3527-2.3334-9.6688-4.056-13.847-7.5929-18.57-2.3342-3.1131-2.7902-4.3982-3.5071-10.067-0.37573-2.8883-0.85523-6.3469-1.0618-7.6664-0.55177-3.2812-0.22157-11.403 1.2693-29.673 0.22779-2.5283 0.50281-7.0874 0.6615-10.044l0.24408-5.4498-16.817-0.0938-16.817-0.0928 0.19915 2.6018c0.13488 1.3901 0.43825 4.4917 0.7102 6.8448 0.57599 5.3832 1.1259 21.812 1.0334 32.037-0.10034 11.651-0.98214 16.42-3.2338 17.726-0.53637 0.31764-1.5743 1.1669-2.2908 1.84-1.576 1.5233-7.7805 8.8285-9.6832 11.384-0.7181 0.9934-1.7577 2.1282-2.3658 2.552-0.96597 0.7075-2.0072 2.1271-6.6426 9.156-0.8983 1.3844-2.9437 3.9741-4.5212 5.7826-1.6136 1.8081-3.2645 3.9722-3.661 4.7893-0.43214 0.8174-1.366 2.1661-2.0829 2.9458-3.299 3.7588-4.7689 5.4252-5.2356 6.0282-0.86133 1.0994-0.65552 2.5973 0.47796 3.7436 0.85059 0.85975 1.3485 1.0409 2.6666 1.0482 2.2804 0.0127 4.1025-0.93921 8.433-4.3711 3.5786-2.7952 4.8325-4.0352 10.496-10.239 2.4022-2.6588 5.2625-4.4959 7.0084-4.4864 0.64125 0.00345 2.31 1.0819 6.5321 4.2768 4.0448 3.051 7.3969 15.398 9.6375 35.363 0.20444 1.6754 0.47836 3.6725 0.6877 4.4577 0.17384 0.78465 0.7284 3.5315 1.2489 6.0639 0.8308 4.3872 2.4746 9.9549 3.5319 11.991 0.9165 1.8225 3.3692 2.8332 5.1548 2.1311 2.0713-0.8794 2.2214-2.2681 0.87584-10.15-0.6561-3.7803-0.9917-7.4883-1.1413-12.655-0.1554-4.0271-0.41699-8.2686-0.62426-9.446-0.20716-1.1764-0.36866-4.206-0.3546-6.6998 0.021-3.7768 0.13255-4.5956 0.56077-4.7715 0.82117-0.28037 1.8835 0.8659 2.0892 2.3278 0.1028 0.74877 0.26966 2.7808 0.36695 4.527 0.25561 5.2744 0.86035 11.87 1.3726 15.863 0.3091 2.0684 0.57264 5.918 0.66517 8.5552 0.14978 5.06 0.65663 10.087 1.2158 12.014 0.8387 2.9265 4.6452 4.0166 6.7234 1.9259zm8.7752-46.698c0.0018-0.35608 0.14586-0.64003 0.35984-0.63879 0.17811 9.6e-4 0.35326 0.53616 0.34976 1.1774-0.0048 0.8556-0.1123 0.9971-0.3595 0.60377-0.1769-0.28577-0.3517-0.82117-0.3501-1.1423z"/> </g> <g fill="#bce5ff"> <path d="m577.41 854.86-41.573-1.3518 1.2868-40.665 41.532 1.3123-1.2436 40.63"/> </g> <g fill="#fff"> <path d="m519.68 574.4 8.3727 267.62 0.08301 0.09179 8.054 0.2544 5.0616 0.16026 2e-4 1e-3v-8e-4l0.3423 0.01056 27.973 0.88374 1.5098 0.04796 1.3e-4 9.8e-4c-6e-5 -8e-4 -6e-5 -6.4e-4 -6e-5 -4.4e-4l6.6751 0.2099 0.9039-29.529-0.90383 29.529 8.0358 0.2538 7.3466-269.53-73.455-4e-5zm19.742 238.96v9.5e-4 -9.5e-4l9.7528 0.05295 7.0782 0.03955-0.0143 1e-3 -16.817-0.0935v9.5e-4 -9.5e-4zm-2.2982-0.5253 19.622 0.62-0.01735 7e-4v9.5e-4l-0.04285-0.00195 0.056 3e-4 -19.618-0.62zm19.562 0.6197 0.033 0.00103 0.0068 1.3e-4v9.7e-4l-0.0068-7.3e-4 -0.033-0.0014z"/> <path d="m537.12 812.84 19.622 0.6201h-0.0269v6.3e-4l-19.595-0.62073z"/> <path d="m582.77 1231.8v1e-3q379.3 232.34 0-1e-3"/> </g> </g> </svg>